<?xml version="1.0" standalone="no"?>
<!DOCTYPE svg PUBLIC "-//W3C//DTD SVG 20010904//EN"
 "http://www.w3.org/TR/2001/REC-SVG-20010904/DTD/svg10.dtd">
<svg version="1.0" xmlns="http://www.w3.org/2000/svg"
 width="16.000000pt" height="16.000000pt" viewBox="0 0 16.000000 16.000000"
 preserveAspectRatio="xMidYMid meet">
<metadata>
Created by potrace 1.11, written by Peter Selinger 2001-2013
</metadata>
<g transform="translate(0.000000,16.000000) scale(0.002286,-0.002286)"
fill="#000000" stroke="none">
<path d="M3487 6673 c-2 -4 -48 -143 -101 -308 -54 -165 -141 -435 -195 -600
-54 -165 -139 -426 -189 -580 -50 -154 -125 -386 -167 -515 -42 -129 -78 -239
-79 -245 -1 -5 -4 -14 -7 -20 -3 -5 -14 -38 -24 -72 l-18 -63 -56 -1 c-31 0
-603 -1 -1271 -2 -909 -2 -1215 -5 -1215 -14 0 -6 52 -49 115 -95 63 -46 520
-378 1015 -737 495 -360 904 -657 909 -661 4 -5 -14 -77 -42 -162 -27 -84 -94
-288 -147 -453 -54 -165 -117 -358 -140 -430 -37 -112 -105 -323 -311 -955
-150 -464 -140 -430 -124 -430 10 0 342 238 845 605 749 547 1205 875 1216
875 8 0 25 -9 39 -20 32 -25 77 -58 273 -200 87 -63 180 -131 206 -150 27 -19
91 -65 142 -102 107 -77 255 -184 290 -211 13 -9 63 -46 112 -81 48 -35 97
-71 110 -80 12 -9 121 -88 242 -176 121 -88 229 -166 240 -174 248 -182 396
-286 404 -286 16 0 14 12 -18 108 -17 48 -85 256 -151 462 -67 206 -137 420
-155 475 -18 55 -59 181 -90 280 -32 99 -89 272 -126 385 -176 537 -230 713
-222 720 4 4 60 45 123 90 63 46 138 100 165 120 28 21 266 194 530 385 264
191 503 364 530 385 28 21 194 142 370 269 176 128 320 238 320 244 0 9 -307
12 -1268 14 -698 0 -1270 3 -1271 5 -2 1 -49 145 -105 318 -57 173 -152 468
-213 655 -60 187 -118 365 -128 395 -16 48 -133 408 -288 884 -44 136 -62 172
-75 149z"/>
</g>
</svg>
